<svg width="256" height="256" fill="none" xmlns="http://www.w3.org/2000/svg"><path d="M92 180a16 16 0 1 1 .002 31.999A16 16 0 0 1 92 180Zm-16-52a16 16 0 1 0 32 0 16 16 0 0 0-32 0Zm32-68a16 16 0 1 0-32-.001A16 16 0 0 0 108 60Zm40 136a15.997 15.997 0 0 0 27.314 11.314A16.003 16.003 0 0 0 164 180a16.002 16.002 0 0 0-16 16Zm0-68a15.997 15.997 0 0 0 27.314 11.314A16.003 16.003 0 0 0 164 112a16.004 16.004 0 0 0-11.314 4.686A16.004 16.004 0 0 0 148 128Zm0-68a15.996 15.996 0 0 0 19.121 15.693 16.003 16.003 0 0 0 12.572-12.572A16.003 16.003 0 0 0 164 44a16 16 0 0 0-16 16Z" fill="#595959"/></svg>