<?xml version="1.0" encoding="UTF-8" standalone="no"?>
<svg
   xmlns:dc="http://purl.org/dc/elements/1.1/"
   xmlns:cc="http://creativecommons.org/ns#"
   xmlns:rdf="http://www.w3.org/1999/02/22-rdf-syntax-ns#"
   xmlns:svg="http://www.w3.org/2000/svg"
   xmlns="http://www.w3.org/2000/svg"
   xmlns:sodipodi="http://sodipodi.sourceforge.net/DTD/sodipodi-0.dtd"
   xmlns:inkscape="http://www.inkscape.org/namespaces/inkscape"
   width="557.76062"
   height="557.76062"
   viewBox="0 0 147.57469 147.57372"
   version="1.1"
   id="svg56"
   sodipodi:docname="nostroid-min-gray.svg"
   inkscape:version="1.0.2 (e86c870879, 2021-01-15)">
  <metadata
     id="metadata62">
    <rdf:RDF>
      <cc:Work
         rdf:about="">
        <dc:format>image/svg+xml</dc:format>
        <dc:type
           rdf:resource="http://purl.org/dc/dcmitype/StillImage" />
        <dc:title></dc:title>
      </cc:Work>
    </rdf:RDF>
  </metadata>
  <defs
     id="defs60" />
  <sodipodi:namedview
     pagecolor="#ffffff"
     bordercolor="#666666"
     borderopacity="1"
     objecttolerance="10"
     gridtolerance="10"
     guidetolerance="10"
     inkscape:pageopacity="0"
     inkscape:pageshadow="2"
     inkscape:window-width="1377"
     inkscape:window-height="850"
     id="namedview58"
     showgrid="false"
     fit-margin-top="0"
     fit-margin-left="0"
     fit-margin-right="0"
     fit-margin-bottom="0"
     inkscape:zoom="0.53940943"
     inkscape:cx="257.53405"
     inkscape:cy="298.91952"
     inkscape:window-x="26"
     inkscape:window-y="23"
     inkscape:window-maximized="0"
     inkscape:current-layer="svg56" />
  <rect
     style="fill:#c2c2c2;fill-opacity:1;stroke-width:0.264584;stroke-linecap:round;stroke-linejoin:round"
     id="rect887"
     width="147.57469"
     height="147.57469"
     x="0"
     y="-0.00048092846"
     ry="0" />
  <g
     style="display:inline"
     transform="translate(-35.91052,-36.774441)"
     id="g54">
    <path
       style="fill:#ffffff;fill-opacity:1;fill-rule:evenodd;stroke:none;stroke-width:0.264583px;stroke-linecap:butt;stroke-linejoin:miter;stroke-opacity:1"
       d="m 95.35,74.424 -6.985,0.656 2.634,36.922 c 0,0 -7.695,4.093 -7.55,20.086 0.145,15.993 -0.285,27.837 -0.285,27.837 l 4.249,-1.322 8.764,-56.237 c 0,0 5.853,-27.49 -0.827,-27.942 z"
       id="path2" />
    <path
       style="fill:#000000;fill-opacity:1;fill-rule:evenodd;stroke:none;stroke-width:0.264583px;stroke-linecap:butt;stroke-linejoin:miter;stroke-opacity:0.639778"
       d="m 120.465,160.036 c 4.19,-6.662 3.662,-19.015 3.68,-24.517 0.02,-5.616 -3.972,-17.724 -4.765,-18.31 -1.055,-0.778 -8.655,1.592 -8.539,-1.35 0.029,-0.736 2.143,-1.514 2.21,-2.98 0.068,-1.466 -1.912,-3.622 -0.838,-3.863 1.393,-0.313 1.701,-1.426 2.49,-3.172 0.734,-1.623 0.504,-4.818 1.67,-4.722 4.04,0.332 4.875,-15.172 4.536,-14.903 -0.49,0.702 -1.846,-4.555 -2.343,-6.299 -0.212,-0.744 -3.045,-4.298 -5.363,-4.17 -2.318,0.129 -18.227,12.013 -19.14,16.246 -0.913,4.234 0.209,19.316 -1.18,22.89 -1.388,3.574 -1.72,4.935 -1.72,4.935"
       id="path4" />
    <ellipse
       style="fill:#202020;fill-opacity:1;stroke:#000000;stroke-width:0.264583;stroke-linecap:round;stroke-linejoin:round;stroke-miterlimit:4;stroke-dasharray:none;stroke-opacity:1"
       cx="104.698"
       cy="169.94099"
       rx="44.801998"
       ry="11.667"
       id="ellipse6" />
    <path
       style="display:inline;fill:#000000;fill-opacity:1;fill-rule:evenodd;stroke:#000000;stroke-width:0.264583px;stroke-linecap:butt;stroke-linejoin:miter;stroke-opacity:1"
       d="m 92.312,75.94 c -5.322,11.108 -1.665,13.315 -2.451,16.65 -0.786,3.335 1.263,11.872 2.226,12.494 -0.23,3.058 -0.142,6.25 0.797,9.802 l -0.523,2.14 -1.367,-1.562 c -7.48,5.715 -5.753,11.316 -5.883,16.94 l 1.696,-0.274 c -0.14,4.05 -0.597,8.135 0.419,12.063 l -2.755,1.497 -0.563,14.638 -1.306,-0.128 c 2.305,-17.012 -4.24,-32.996 6.936,-48.055 1.862,-2.507 0.59,-2.698 0.389,-4.034 -1.204,-7.996 -9.335,-22.393 -9.335,-22.393 z"
       id="path8" />
    <path
       style="fill:#fea91b;fill-opacity:1;fill-rule:evenodd;stroke:#000000;stroke-width:1.78858;stroke-linecap:round;stroke-linejoin:round;stroke-miterlimit:4;stroke-dasharray:none;stroke-opacity:1"
       d="m 69.92,118.82 13.828,-31.11 2.62,-0.024 1.331,8.762 -14.534,25.656 C 61.218,113.54 57.74,102.776 59.748,90.04 l 24,-2.33"
       id="path10" />
    <path
       style="fill:#de2101;fill-opacity:1;fill-rule:evenodd;stroke:#000000;stroke-width:1.77271;stroke-linecap:round;stroke-linejoin:round;stroke-miterlimit:4;stroke-dasharray:none;stroke-opacity:1"
       d="M 89.65,70.453 C 73.46,69.51 61.903,77.32 59.748,90.04 l 24,-2.33 7.618,-11.814 -2.126,-2.026 z"
       id="path12" />
    <path
       style="fill:#000000;fill-opacity:1;fill-rule:evenodd;stroke:#000000;stroke-width:0.264583px;stroke-linecap:butt;stroke-linejoin:miter;stroke-opacity:1"
       d="m 91.163,119.821 c -4.262,35.217 -1.009,36.127 -7.51,44.686 l 36.812,-4.471"
       id="path14" />
    <path
       style="fill:#fefefe;fill-opacity:1;fill-rule:evenodd;stroke:none;stroke-width:0.264583px;stroke-linecap:butt;stroke-linejoin:miter;stroke-opacity:1"
       d="m 90.1,172.684 c 4.155,-14.516 6.06,-36.442 8.854,-49.512 0.296,-1.388 7.798,-1.408 8.374,-0.201 4.659,9.77 1.3,22.737 6.163,37.066 -8.486,2.388 -14.75,10.243 -23.392,12.647 z"
       id="path16" />
    <path
       style="fill:#197dec;fill-opacity:1;fill-rule:evenodd;stroke:none;stroke-width:0.264583px;stroke-linecap:butt;stroke-linejoin:miter;stroke-opacity:1"
       d="m 92.348,152.562 c -0.72,-0.07 -2.34,-5.176 -3.678,-8.788 -0.62,-1.67 -1.138,-14.554 -0.385,-15.733 0.952,-1.493 4.083,-6.512 5.057,-6.624 0.973,-0.112 2.885,2.05 3.143,2.867 0.259,0.816 -3.268,28.363 -4.137,28.278 z m -6.28,0.089 c 0,0 2.134,-4.705 2.767,-4.673 0.902,0.045 2.45,4.598 3.203,5.433 0.603,0.667 -0.151,4.14 0.081,6.005 0.486,3.899 -1.33,8.91 -1.806,10.681 -0.31,1.152 0.377,3.558 0.377,3.558 0,0 -3.91,4.156 -4.762,3.78 -1.54,-0.676 -2.976,-11.983 -2.696,-12.913 0.28,-0.93 1.846,-3.803 1.846,-3.803 z"
       id="path18" />
    <ellipse
       style="fill:#ffffff;fill-opacity:1;stroke:none;stroke-width:0.264583;stroke-linecap:round;stroke-linejoin:round;stroke-miterlimit:4;stroke-dasharray:none;stroke-opacity:1"
       cx="124.984"
       cy="132.36501"
       rx="1.896"
       ry="4.3189998"
       transform="rotate(14.5)"
       id="ellipse20" />
    <path
       style="fill:#197dec;fill-opacity:1;fill-rule:evenodd;stroke:none;stroke-width:0.264583px;stroke-linecap:butt;stroke-linejoin:miter;stroke-opacity:1"
       d="m 112.874,125.48 c 0.334,-1.112 4.039,-7.64 4.924,-7.283 0.885,0.358 2.57,4.933 3.071,7.792 0.501,2.858 -1.74,17.116 -1.47,18.625 0.583,3.266 4.642,6.041 -0.398,9.92 -1.751,1.347 -3.453,-0.035 -3.543,-0.636 -1.113,-7.484 -2.584,-28.417 -2.584,-28.417 z"
       id="path22" />
    <ellipse
       style="fill:#ffffff;fill-opacity:1;stroke:none;stroke-width:0.264583;stroke-linecap:round;stroke-linejoin:round;stroke-miterlimit:4;stroke-dasharray:none;stroke-opacity:1"
       cx="149.98801"
       cy="116.8"
       rx="1.04"
       ry="2.5369999"
       transform="rotate(12.387)"
       id="ellipse24" />
    <path
       style="fill:#197dec;fill-opacity:1;fill-rule:evenodd;stroke:none;stroke-width:0.264583px;stroke-linecap:butt;stroke-linejoin:miter;stroke-opacity:1"
       d="m 118.14,157.314 c 3.666,0.531 3.191,4.436 1.918,12.506 -1.272,8.071 -3.042,9.964 -4.353,10.078 -1.312,0.114 -1.148,-0.483 -2.87,-2.401 -0.626,-0.696 -0.06,-5.69 0.674,-10.67 0.734,-4.981 1.635,-9.947 4.63,-9.513 z"
       id="path26" />
    <path
       style="fill:#000000;fill-opacity:1;fill-rule:evenodd;stroke:none;stroke-width:0.264583;stroke-linecap:butt;stroke-linejoin:miter;stroke-miterlimit:4;stroke-dasharray:none;stroke-opacity:1"
       d="m 113.11,114.7 12.353,-43.842 12.498,-0.067 -11.401,44.421 z m 23.106,-0.637 12.352,-43.843 12.498,-0.067 -11.402,44.422 z"
       id="path28" />
    <path
       style="fill:#616161;fill-opacity:1;fill-rule:evenodd;stroke:none;stroke-width:0.264583;stroke-linecap:butt;stroke-linejoin:miter;stroke-miterlimit:4;stroke-dasharray:none;stroke-opacity:1"
       d="M 150.314,114.633 137.96,70.791 125.462,70.724 136.864,115.145 Z"
       id="path30" />
    <path
       style="fill:#197dec;fill-opacity:1;fill-rule:evenodd;stroke:none;stroke-width:0.264583px;stroke-linecap:butt;stroke-linejoin:miter;stroke-opacity:1"
       d="m 94.802,106.496 c -0.612,2.064 5.305,5.36 12.894,3.655 7.59,-1.704 6.182,-8.019 7.628,-11.71 1.447,-3.69 2.795,-2.82 3.028,-5.722 0.234,-2.902 -0.858,-10.585 -4.076,-11.4 -4.456,-1.13 -12.057,-7.075 -19.351,3.507 -2.413,3.5 -3.627,0.659 -4.944,1.218 -1.318,0.56 0.034,13.44 0.544,15.392 1.332,5.09 3.298,4.22 3.455,4.113 0.157,-0.107 -0.832,-13.664 0.496,-13.691 1.328,-0.027 -0.151,3.56 1.24,5.75 1.391,2.19 3.735,2.289 3.801,2.959 0.066,0.67 -0.892,0.475 -0.912,1.23 -0.02,0.756 1.054,1.082 1.013,1.714 -0.048,0.714 -3.28,-0.503 -3.307,0.13 -0.027,0.632 3.942,1.113 3.947,1.856 0.005,0.744 -5.358,-1.373 -5.456,0.999 z"
       id="path32" />
    <path
       style="fill:#202020;fill-opacity:1;fill-rule:evenodd;stroke:none;stroke-width:0.264583px;stroke-linecap:butt;stroke-linejoin:miter;stroke-opacity:1"
       d="m 109.713,105.503 c 0.672,0.18 2.618,-4.636 3.81,-7.89 1.192,-3.254 1.63,-4.947 0.726,-5.11 -0.904,-0.164 -1.772,3.185 -2.892,6.416 -1.12,3.23 -2.493,6.341 -1.644,6.584 z"
       id="path34" />
    <path
       style="fill:#ffffff;fill-opacity:1;fill-rule:evenodd;stroke:none;stroke-width:0.264583px;stroke-linecap:butt;stroke-linejoin:miter;stroke-opacity:1"
       d="m 109.266,78.2 c 4.574,-1.543 5.929,-1.044 8.396,1.799 1.233,1.421 0.364,3.023 1.42,4.505 1.283,1.804 1.04,2.399 0.563,3.174 -0.952,1.55 -1.713,-3.867 -2.718,-5.126 -1.005,-1.258 -8.02,-2.785 -8.02,-2.785 z"
       id="path36" />
    <path
       style="fill:#000000;fill-rule:evenodd;stroke:#000000;stroke-width:0.264583px;stroke-linecap:butt;stroke-linejoin:miter;stroke-opacity:1"
       d="m 113.203,72.18 c -0.255,8.458 -18.858,4.85 -18.13,0.155 L 94.118,72.21 c 0.836,1.634 0.288,3.346 -0.156,5.052 l 2.724,0.516 0.268,4.747 c 1.437,-0.582 6.153,2.221 7.565,2.13 1.413,-0.09 6.854,-2.205 6.854,-2.205 l -0.076,-4.8 1.906,-1.9 c 1.106,-0.853 1.05,-2.226 1.186,-3.515 z"
       id="path38" />
    <path
       style="fill:#197dec;fill-opacity:1;fill-rule:evenodd;stroke:#197dec;stroke-width:0.264583px;stroke-linecap:butt;stroke-linejoin:miter;stroke-opacity:1"
       d="m 112.985,74.036 c 0.914,-1.46 3.102,-18.73 -0.55,-20.006 -3.68,-1.286 -14.993,-1.164 -15.824,-0.203 -1.176,1.36 -3.426,18.064 -0.64,20.621 3.429,3.11 13.816,4.246 17.014,-0.412 z"
       id="path40" />
    <path
       style="fill:#000000;fill-rule:evenodd;stroke:#000000;stroke-width:0.264583px;stroke-linecap:butt;stroke-linejoin:miter;stroke-opacity:1"
       d="m 118.983,39.92 -1.997,-0.385 -4.174,14.233 c 0.065,4.474 -2.223,7.169 -2.872,8.343 -0.65,1.173 -1.09,10.768 -1.09,10.768 l 1.313,-0.178 c -1.204,-8.955 4.045,-18.186 3.04,-0.52 l 1.186,0.054 c -0.34,-5.513 1.618,-11.091 -0.254,-16.658 2.175,-4.25 -1.85,3.88 4.848,-15.657 z m -28.435,0.085 1.997,-0.385 4.175,14.233 c -0.066,4.474 1.854,8.04 2.504,9.214 0.65,1.174 -0.099,9.995 -0.099,9.995 L 97.801,72.933 C 99.916,65.562 94.068,54.669 95.073,72.335 L 94.118,72.21 c 0.34,-5.513 -0.593,-10.98 1.278,-16.548 -3.186,-3.208 1.85,3.88 -4.848,-15.657 z"
       id="path42" />
    <path
       style="fill:#000000;fill-opacity:1;fill-rule:evenodd;stroke:#000000;stroke-width:0.264583px;stroke-linecap:butt;stroke-linejoin:miter;stroke-opacity:1"
       d="m 112.242,72.019 c -0.27,-11.545 -0.71,-6 -0.967,0.687 0.359,0.05 0.995,-0.946 0.967,-0.687 z"
       id="path44" />
    <ellipse
       style="fill:#ffffff;fill-opacity:1;stroke:#ffffff;stroke-width:1.565;stroke-linecap:round;stroke-opacity:1"
       ry="2.2290001"
       rx="1.518"
       cy="56.659"
       cx="100.027"
       id="ellipse46" />
    <path
       style="fill:#e6e6e6;fill-rule:evenodd;stroke:#e6e6e6;stroke-width:0.264583px;stroke-linecap:butt;stroke-linejoin:miter;stroke-opacity:1"
       d="m 102.879,80.562 c 2.944,0.62 2.223,1.054 2.06,1.515 z m 1.729,0.116 c 2.988,0.348 2.31,0.846 2.19,1.32 z m 1.535,-0.102 c 3.005,0.136 2.364,0.68 2.278,1.161 z m -4.663,-0.133 c 2.82,1.046 2.044,1.368 1.816,1.801 z m -1.04,-0.068 c 2.578,1.55 1.755,1.723 1.45,2.106 z"
       id="path48" />
    <path
       style="fill:#000000;fill-opacity:1;fill-rule:evenodd;stroke:#000000;stroke-width:0.264583px;stroke-linecap:butt;stroke-linejoin:miter;stroke-opacity:1"
       d="m 96.017,72.16 c 0.27,-11.544 0.71,-6 0.967,0.687 -0.359,0.051 -0.996,-0.946 -0.967,-0.687 z"
       id="path50" />
    <path
       style="fill:#197dec;fill-opacity:1;fill-rule:evenodd;stroke:#000000;stroke-width:0.264583;stroke-linecap:butt;stroke-linejoin:round;stroke-miterlimit:4;stroke-dasharray:none;stroke-opacity:1"
       d="m 104.314,112.018 c -4.015,0.033 -7.625,-0.599 -7.248,-0.184 a 8.241,8.241 0 0 0 1.552,1.312 c 0,0 -4.158,-0.4 -4.276,-0.08 -0.118,0.32 2.884,3.196 8.779,3.145 3.606,-0.017 9.48,-1.435 9.202,-3.873 -0.13,-1.136 -3.994,-0.352 -8.009,-0.32 z"
       id="path52" />
  </g>
</svg>
