<?xml version="1.0" encoding="UTF-8" standalone="no"?>
<svg
   xmlns:dc="http://purl.org/dc/elements/1.1/"
   xmlns:cc="http://creativecommons.org/ns#"
   xmlns:rdf="http://www.w3.org/1999/02/22-rdf-syntax-ns#"
   xmlns:svg="http://www.w3.org/2000/svg"
   xmlns="http://www.w3.org/2000/svg"
   xmlns:sodipodi="http://sodipodi.sourceforge.net/DTD/sodipodi-0.dtd"
   xmlns:inkscape="http://www.inkscape.org/namespaces/inkscape"
   width="106.73656mm"
   height="146.35739mm"
   viewBox="0 0 106.73656 146.35739"
   version="1.1"
   id="svg8"
   sodipodi:docname="nostroid.svg"
   inkscape:version="1.0.2 (e86c870879, 2021-01-15)">
  <sodipodi:namedview
     pagecolor="#ffffff"
     bordercolor="#666666"
     borderopacity="1"
     objecttolerance="10"
     gridtolerance="10"
     guidetolerance="10"
     inkscape:pageopacity="0"
     inkscape:pageshadow="2"
     inkscape:window-width="1920"
     inkscape:window-height="1043"
     id="namedview25"
     showgrid="false"
     fit-margin-top="2"
     fit-margin-left="2"
     fit-margin-right="2"
     fit-margin-bottom="2"
     lock-margins="true"
     inkscape:zoom="1.0106217"
     inkscape:cx="-83.042728"
     inkscape:cy="313.0645"
     inkscape:window-x="0"
     inkscape:window-y="0"
     inkscape:window-maximized="1"
     inkscape:current-layer="layer5" />
  <defs
     id="defs2" />
  <metadata
     id="metadata5">
    <rdf:RDF>
      <cc:Work
         rdf:about="">
        <dc:format>image/svg+xml</dc:format>
        <dc:type
           rdf:resource="http://purl.org/dc/dcmitype/StillImage" />
        <dc:title></dc:title>
      </cc:Work>
    </rdf:RDF>
  </metadata>
  <g
     inkscape:groupmode="layer"
     id="layer5"
     inkscape:label="Layer 2"
     style="display:inline"
     transform="translate(-56.329477,-37.38252)">
    <path
       style="fill:#ffffff;fill-opacity:1;fill-rule:evenodd;stroke:none;stroke-width:0.264583px;stroke-linecap:butt;stroke-linejoin:miter;stroke-opacity:1"
       d="m 95.350181,74.423765 -6.985317,0.656551 2.634388,36.921574 c 0,0 -7.695308,4.09271 -7.550346,20.08593 0.144963,15.99321 -0.285067,27.83747 -0.285067,27.83747 l 4.249179,-1.32205 8.763993,-56.23691 c 0,0 5.852969,-27.490291 -0.82683,-27.942565 z"
       id="path1877" />
    <path
       style="fill:#000000;fill-opacity:1;fill-rule:evenodd;stroke:none;stroke-width:0.264583px;stroke-linecap:butt;stroke-linejoin:miter;stroke-opacity:0.639778"
       d="m 120.46547,160.03575 c 4.18948,-6.66205 3.66119,-19.01477 3.68032,-24.51689 0.0195,-5.61577 -3.97231,-17.72422 -4.76537,-18.3093 -1.05513,-0.77842 -8.6556,1.59138 -8.5394,-1.35136 0.029,-0.73569 2.1433,-1.51295 2.21057,-2.97923 0.0673,-1.46628 -1.91246,-3.62157 -0.83846,-3.86301 1.39261,-0.31307 1.701,-1.42635 2.48997,-3.17161 0.73375,-1.62309 0.50356,-4.81859 1.66999,-4.72274 4.04005,0.33198 4.87464,-15.17143 4.53641,-14.90216 -0.49104,0.701079 -1.84687,-4.55559 -2.34369,-6.299111 -0.21224,-0.744818 -3.04431,-4.298627 -5.36265,-4.169973 -2.31834,0.128651 -18.226935,12.012798 -19.139922,16.246126 -0.912985,4.233325 0.208666,19.315658 -1.179754,22.889468 -1.388417,3.57381 -1.72027,4.93523 -1.72027,4.93523"
       id="path1846"
       sodipodi:nodetypes="cssssssscssssc" />
    <ellipse
       style="fill:#202020;fill-opacity:1;stroke:#000000;stroke-width:0.264583;stroke-linecap:round;stroke-linejoin:round;stroke-miterlimit:4;stroke-dasharray:none;stroke-opacity:1"
       id="path1828"
       cx="104.69801"
       cy="169.94104"
       rx="44.801979"
       ry="11.666575" />
    <path
       style="display:inline;fill:#000000;fill-opacity:1;fill-rule:evenodd;stroke:#000000;stroke-width:0.264583px;stroke-linecap:butt;stroke-linejoin:miter;stroke-opacity:1"
       d="m 92.312267,75.940121 c -5.322686,11.107514 -1.665576,13.314674 -2.45142,16.649803 -0.785844,3.335129 1.263419,11.872326 2.226027,12.494046 -0.230783,3.05761 -0.14157,6.25044 0.796673,9.80199 l -0.52247,2.14084 -1.36744,-1.56233 c -7.480187,5.71473 -5.752491,11.31538 -5.882702,16.93905 l 1.696474,-0.2737 c -0.140459,4.05085 -0.597134,8.13518 0.418333,12.06368 l -2.755141,1.49653 -0.562237,14.6384 -1.306703,-0.128 c 2.305823,-17.012 -4.239982,-32.99661 6.936666,-48.05515 1.861292,-2.50776 0.589827,-2.69817 0.38868,-4.034 -1.204135,-7.99677 -9.334936,-22.392939 -9.334936,-22.392939 z"
       id="path1806"
       sodipodi:nodetypes="czccccccccccsscc" />
    <path
       style="fill:#fea91b;fill-opacity:1;fill-rule:evenodd;stroke:#000000;stroke-width:1.78858;stroke-linecap:round;stroke-linejoin:round;stroke-miterlimit:4;stroke-dasharray:none;stroke-opacity:1"
       d="m 69.919513,118.81991 13.828747,-31.109252 2.62007,-0.0246 1.331,8.761691 -14.534644,25.655891 C 61.218076,113.5395 57.739765,102.77568 59.74769,90.040028 l 24.00057,-2.32937"
       id="path890"
       sodipodi:nodetypes="ccccccc" />
    <path
       style="fill:#de2101;fill-opacity:1;fill-rule:evenodd;stroke:#000000;stroke-width:1.77271;stroke-linecap:round;stroke-linejoin:round;stroke-miterlimit:4;stroke-dasharray:none;stroke-opacity:1"
       d="M 89.650355,70.452904 C 73.459436,69.511297 61.902712,77.321398 59.74769,90.040028 l 24.00057,-2.32937 7.61773,-11.81508 -2.126015,-2.025501 z"
       id="path892"
       sodipodi:nodetypes="cccccc" />
    <path
       style="fill:#000000;fill-opacity:1;fill-rule:evenodd;stroke:#000000;stroke-width:0.264583px;stroke-linecap:butt;stroke-linejoin:miter;stroke-opacity:1"
       d="m 91.163274,119.82119 c -4.262751,35.21671 -1.008984,36.12641 -7.509695,44.68565 l 36.811891,-4.47109"
       id="path1848"
       sodipodi:nodetypes="ccc" />
    <path
       style="fill:#fefefe;fill-opacity:1;fill-rule:evenodd;stroke:none;stroke-width:0.264583px;stroke-linecap:butt;stroke-linejoin:miter;stroke-opacity:1"
       d="m 90.099343,172.6837 c 4.155735,-14.51603 6.060502,-36.44163 8.854346,-49.51174 0.296651,-1.38779 7.798671,-1.40761 8.374101,-0.20096 4.65873,9.76909 1.29999,22.73662 6.1631,37.06552 -8.48555,2.38821 -14.749262,10.24393 -23.391547,12.64718 z"
       id="path1830"
       sodipodi:nodetypes="csscc" />
    <path
       style="fill:#197dec;fill-opacity:1;fill-rule:evenodd;stroke:none;stroke-width:0.264583px;stroke-linecap:butt;stroke-linejoin:miter;stroke-opacity:1"
       d="m 92.348287,152.5621 c -0.719862,-0.0701 -2.339996,-5.17614 -3.678785,-8.78802 -0.61933,-1.67087 -1.137298,-14.55426 -0.384778,-15.73321 0.952714,-1.49259 4.083761,-6.51208 5.056827,-6.62406 0.973069,-0.11199 2.885197,2.05095 3.143676,2.86704 0.25848,0.81609 -3.267783,28.36285 -4.13694,28.27825 z"
       id="path1832"
       sodipodi:nodetypes="ssssss" />
    <path
       style="fill:#197dec;fill-opacity:1;fill-rule:evenodd;stroke:none;stroke-width:0.264583px;stroke-linecap:butt;stroke-linejoin:miter;stroke-opacity:1"
       d="m 86.068153,152.65109 c 0,0 2.134328,-4.70524 2.767073,-4.67343 0.901973,0.0453 2.449083,4.59846 3.20294,5.4329 0.602682,0.66711 -0.151588,4.14059 0.08081,6.00545 0.48586,3.89876 -1.329586,8.91057 -1.805758,10.68133 -0.309654,1.15152 0.377024,3.55736 0.377024,3.55736 0,0 -3.909552,4.15584 -4.76211,3.78118 -1.540613,-0.67702 -2.976328,-11.9835 -2.696476,-12.91364 0.279853,-0.93013 1.846342,-3.80296 1.846342,-3.80296 z"
       id="path1834"
       sodipodi:nodetypes="csssscsscc" />
    <ellipse
       style="fill:#ffffff;fill-opacity:1;stroke:none;stroke-width:0.264583;stroke-linecap:round;stroke-linejoin:round;stroke-miterlimit:4;stroke-dasharray:none;stroke-opacity:1"
       id="path1836"
       cx="124.98358"
       cy="132.3649"
       rx="1.8956963"
       ry="4.3192801"
       transform="rotate(14.499697)" />
    <path
       style="fill:#197dec;fill-opacity:1;fill-rule:evenodd;stroke:none;stroke-width:0.264583px;stroke-linecap:butt;stroke-linejoin:miter;stroke-opacity:1"
       d="m 112.87437,125.48077 c 0.33409,-1.1129 4.03835,-7.64063 4.92346,-7.28341 0.88512,0.35723 2.56966,4.93286 3.07115,7.79141 0.5015,2.85855 -1.7409,17.11629 -1.47085,18.62541 0.58434,3.26553 4.64296,6.04118 -0.39736,9.91959 -1.75086,1.34725 -3.45287,-0.0346 -3.5424,-0.63614 -1.11365,-7.48334 -2.584,-28.41686 -2.584,-28.41686 z"
       id="path1840"
       sodipodi:nodetypes="csssssc" />
    <ellipse
       style="fill:#ffffff;fill-opacity:1;stroke:none;stroke-width:0.264583;stroke-linecap:round;stroke-linejoin:round;stroke-miterlimit:4;stroke-dasharray:none;stroke-opacity:1"
       id="path1842"
       cx="149.98839"
       cy="116.80047"
       rx="1.0398669"
       ry="2.5374777"
       transform="rotate(12.387346)" />
    <path
       style="fill:#197dec;fill-opacity:1;fill-rule:evenodd;stroke:none;stroke-width:0.264583px;stroke-linecap:butt;stroke-linejoin:miter;stroke-opacity:1"
       d="m 118.13988,157.31422 c 3.66567,0.53122 3.19119,4.43535 1.91847,12.50625 -1.27271,8.0709 -3.04222,9.9637 -4.35363,10.07759 -1.3114,0.1139 -1.14772,-0.48351 -2.87014,-2.40133 -0.62525,-0.69617 -0.0588,-5.69044 0.67481,-10.67057 0.73363,-4.98012 1.63447,-9.94612 4.63051,-9.51194 z"
       id="path1844"
       sodipodi:nodetypes="sssssss" />
    <path
       style="fill:#000000;fill-opacity:1;fill-rule:evenodd;stroke:none;stroke-width:0.264583;stroke-linecap:butt;stroke-linejoin:miter;stroke-miterlimit:4;stroke-dasharray:none;stroke-opacity:1"
       d="m 113.11084,114.7003 12.35256,-43.842783 12.49794,-0.067 -11.40168,44.421523 z"
       id="path897-3" />
    <path
       style="fill:#000000;fill-opacity:1;fill-rule:evenodd;stroke:none;stroke-width:0.264583;stroke-linecap:butt;stroke-linejoin:miter;stroke-miterlimit:4;stroke-dasharray:none;stroke-opacity:1"
       d="m 136.21555,114.06321 12.35255,-43.842783 12.49793,-0.067 -11.40168,44.421523 z"
       id="path899-8" />
    <path
       style="fill:#616161;fill-opacity:1;fill-rule:evenodd;stroke:none;stroke-width:0.264583;stroke-linecap:butt;stroke-linejoin:miter;stroke-miterlimit:4;stroke-dasharray:none;stroke-opacity:1"
       d="m 150.31389,114.6333 -12.35255,-43.842783 -12.49794,-0.067 11.40167,44.421523 z"
       id="path901-8" />
    <path
       style="fill:#197dec;fill-opacity:1;fill-rule:evenodd;stroke:none;stroke-width:0.264583px;stroke-linecap:butt;stroke-linejoin:miter;stroke-opacity:1"
       d="m 94.802168,106.49588 c -0.611683,2.06364 5.304372,5.35987 12.894112,3.65553 7.58975,-1.70433 6.18126,-8.01937 7.62816,-11.709891 1.4469,-3.690514 2.79419,-2.82004 3.02777,-5.722522 0.23357,-2.902479 -0.85802,-10.585221 -4.07604,-11.400842 -4.4562,-1.129444 -12.05729,-7.073756 -19.351432,3.507653 -2.412812,3.500202 -3.626246,0.659227 -4.944067,1.2183 -1.317823,0.559072 0.03395,13.44001 0.54452,15.391822 1.331711,5.09088 3.29749,4.22021 3.454502,4.1131 0.157009,-0.10712 -0.831785,-13.664076 0.496249,-13.691103 1.328036,-0.02703 -0.151133,3.559265 1.240086,5.749729 1.391219,2.190464 3.735078,2.2889 3.801065,2.959064 0.06598,0.67016 -0.89253,0.4751 -0.912416,1.2305 -0.0199,0.75541 1.054767,1.0813 1.012841,1.7141 -0.04728,0.71356 -3.278963,-0.50285 -3.306442,0.12935 -0.02748,0.63221 3.941894,1.11309 3.946684,1.85656 0.005,0.74347 -5.357519,-1.37359 -5.455592,0.99865 z"
       id="path1868"
       sodipodi:nodetypes="csssssssssssssscc" />
    <path
       style="fill:#202020;fill-opacity:1;fill-rule:evenodd;stroke:none;stroke-width:0.264583px;stroke-linecap:butt;stroke-linejoin:miter;stroke-opacity:1"
       d="m 109.71337,105.50292 c 0.67116,0.17952 2.61757,-4.63596 3.80981,-7.890112 1.19225,-3.254149 1.63033,-4.946961 0.72605,-5.11057 -0.90428,-0.163609 -1.77245,3.186084 -2.89265,6.41646 -1.1202,3.230382 -2.49244,6.341432 -1.64321,6.584222 z"
       id="path1870"
       sodipodi:nodetypes="csssc" />
    <path
       style="fill:#ffffff;fill-opacity:1;fill-rule:evenodd;stroke:none;stroke-width:0.264583px;stroke-linecap:butt;stroke-linejoin:miter;stroke-opacity:1"
       d="m 109.2663,78.19973 c 4.57382,-1.543169 5.92825,-1.043846 8.39522,1.799156 1.23348,1.421502 0.36477,3.022808 1.41984,4.505348 1.28332,1.803286 1.03972,2.398415 0.56372,3.173615 -0.952,1.550404 -1.71297,-3.866906 -2.71812,-5.125521 -1.00516,-1.258615 -8.02042,-2.784843 -8.02042,-2.784843 z"
       id="path1872"
       sodipodi:nodetypes="csssscc" />
    <path
       style="fill:#000000;fill-rule:evenodd;stroke:#000000;stroke-width:0.264583px;stroke-linecap:butt;stroke-linejoin:miter;stroke-opacity:1"
       d="m 113.20294,72.180857 c -0.25518,8.456799 -18.858275,4.849259 -18.129905,0.15365 l -0.95492,-0.12484 c 0.83562,1.63389 0.2874,3.34616 -0.156,5.052489 l 2.7235,0.51586 0.26829,4.74742 c 1.43748,-0.58254 6.153405,2.22079 7.565535,2.1302 1.41214,-0.0906 6.85363,-2.2057 6.85363,-2.2057 l -0.0765,-4.79926 1.90665,-1.90031 c 1.10554,-0.852949 1.05046,-2.226729 1.18544,-3.515209 z"
       id="path915-3" />
    <path
       style="fill:#197dec;fill-opacity:1;fill-rule:evenodd;stroke:#197dec;stroke-width:0.264583px;stroke-linecap:butt;stroke-linejoin:miter;stroke-opacity:1"
       d="m 112.98482,74.035807 c 0.91421,-1.46055 3.10216,-18.72903 -0.55029,-20.006036 -3.67883,-1.28623 -14.992445,-1.164267 -15.823075,-0.203036 -1.17627,1.361209 -3.42657,18.064712 -0.64092,20.621612 3.42908,3.108769 13.816215,4.245719 17.014285,-0.41254 z"
       id="path903-40" />
    <path
       style="fill:#000000;fill-rule:evenodd;stroke:#000000;stroke-width:0.264583px;stroke-linecap:butt;stroke-linejoin:miter;stroke-opacity:1"
       d="m 118.98304,39.91972 -1.99689,-0.384551 -4.1746,14.232974 c 0.0654,4.473897 -2.22231,7.168634 -2.87194,8.342462 -0.64961,1.173822 -1.09055,10.768452 -1.09055,10.768452 l 1.31436,-0.1777 c -1.20393,-8.95486 4.04416,-18.186051 3.03952,-0.5205 l 1.1857,0.0543 c -0.33927,-5.51283 1.61789,-11.091262 -0.25319,-16.658377 2.17456,-4.250692 -1.8502,3.87956 4.84759,-15.65711 z"
       id="path907-8" />
    <path
       style="fill:#000000;fill-rule:evenodd;stroke:#000000;stroke-width:0.264583px;stroke-linecap:butt;stroke-linejoin:miter;stroke-opacity:1"
       d="m 90.548055,40.004857 1.9969,-0.384551 4.17459,14.232974 c -0.0654,4.473897 1.85452,8.040366 2.50414,9.214187 0.64962,1.17382 -0.0985,9.99477 -0.0985,9.99477 l -1.32369,-0.12891 c 2.11425,-7.37131 -3.7331,-18.264368 -2.72846,-0.59882 l -0.95492,-0.12484 c 0.33928,-5.51283 -0.59354,-10.980585 1.27753,-16.5477 -3.18613,-3.208334 1.8502,3.87956 -4.84759,-15.65711 z"
       id="path905-0" />
    <path
       style="fill:#000000;fill-opacity:1;fill-rule:evenodd;stroke:#000000;stroke-width:0.264583px;stroke-linecap:butt;stroke-linejoin:miter;stroke-opacity:1"
       d="m 112.24189,72.018997 c -0.26977,-11.544586 -0.70937,-6.00008 -0.96676,0.6872 0.35852,0.0506 0.99532,-0.94656 0.96676,-0.6872 z"
       id="path911-8" />
    <ellipse
       style="fill:#ffffff;fill-opacity:1;stroke:#ffffff;stroke-width:1.565;stroke-linecap:round;stroke-opacity:1"
       id="path913-2"
       ry="2.2287629"
       rx="1.5182868"
       cy="56.659184"
       cx="100.02695" />
    <path
       style="fill:#e6e6e6;fill-rule:evenodd;stroke:#e6e6e6;stroke-width:0.264583px;stroke-linecap:butt;stroke-linejoin:miter;stroke-opacity:1"
       d="m 102.87898,80.562256 c 2.94368,0.62059 2.22288,1.05355 2.06003,1.51507 z"
       id="path921-0" />
    <path
       style="fill:#e6e6e6;fill-rule:evenodd;stroke:#e6e6e6;stroke-width:0.264583px;stroke-linecap:butt;stroke-linejoin:miter;stroke-opacity:1"
       d="m 104.60792,80.678016 c 2.98813,0.34837 2.31001,0.84552 2.19012,1.32002 z"
       id="path923-5" />
    <path
       style="fill:#e6e6e6;fill-rule:evenodd;stroke:#e6e6e6;stroke-width:0.264583px;stroke-linecap:butt;stroke-linejoin:miter;stroke-opacity:1"
       d="m 106.14269,80.575536 c 3.00533,0.13606 2.36406,0.67995 2.27807,1.16174 z"
       id="path925-9" />
    <path
       style="fill:#e6e6e6;fill-rule:evenodd;stroke:#e6e6e6;stroke-width:0.264583px;stroke-linecap:butt;stroke-linejoin:miter;stroke-opacity:1"
       d="m 101.48009,80.443193 c 2.82084,1.04561 2.04433,1.368169 1.81556,1.800816 z"
       id="path1850" />
    <path
       style="fill:#e6e6e6;fill-rule:evenodd;stroke:#e6e6e6;stroke-width:0.264583px;stroke-linecap:butt;stroke-linejoin:miter;stroke-opacity:1"
       d="m 100.43924,80.374671 c 2.57842,1.549895 1.7556,1.723079 1.45067,2.105879 z"
       id="path1852" />
    <path
       style="fill:#000000;fill-opacity:1;fill-rule:evenodd;stroke:#000000;stroke-width:0.264583px;stroke-linecap:butt;stroke-linejoin:miter;stroke-opacity:1"
       d="m 96.016969,72.160164 c 0.26977,-11.544586 0.70937,-6.00008 0.96676,0.6872 -0.35852,0.0506 -0.99532,-0.94656 -0.96676,-0.6872 z"
       id="path1854" />
    <path
       id="path1858"
       style="fill:#197dec;fill-opacity:1;fill-rule:evenodd;stroke:#000000;stroke-width:0.264583;stroke-linecap:butt;stroke-linejoin:round;stroke-miterlimit:4;stroke-dasharray:none;stroke-opacity:1"
       d="m 104.31426,112.01814 c -4.01521,0.0326 -7.624833,-0.59912 -7.248709,-0.18454 0.722789,0.79667 1.552004,1.31196 1.552004,1.31196 0,0 -4.157494,-0.39964 -4.275511,-0.0796 -0.118017,0.32004 2.884011,3.19597 8.778766,3.14517 3.60578,-0.0168 9.48084,-1.43502 9.20257,-3.87278 -0.12973,-1.13645 -3.99391,-0.35281 -8.00912,-0.32022 z"
       sodipodi:nodetypes="ssczcss" />
  </g>
</svg>
