<svg xmlns="http://www.w3.org/2000/svg" width="403.414" height="553.162" viewBox="0 0 106.737 146.357"><g style="display:inline" transform="translate(-56.33 -37.383)"><path style="fill:#fff;fill-opacity:1;fill-rule:evenodd;stroke:none;stroke-width:.264583px;stroke-linecap:butt;stroke-linejoin:miter;stroke-opacity:1" d="m95.35 74.424-6.985.656 2.634 36.922s-7.695 4.093-7.55 20.086c.145 15.993-.285 27.837-.285 27.837l4.249-1.322 8.764-56.237s5.853-27.49-.827-27.942z"/><path style="fill:#000;fill-opacity:1;fill-rule:evenodd;stroke:none;stroke-width:.264583px;stroke-linecap:butt;stroke-linejoin:miter;stroke-opacity:.639778" d="M120.465 160.036c4.19-6.662 3.662-19.015 3.68-24.517.02-5.616-3.972-17.724-4.765-18.31-1.055-.778-8.655 1.592-8.539-1.35.029-.736 2.143-1.514 2.21-2.98.068-1.466-1.912-3.622-.838-3.863 1.393-.313 1.701-1.426 2.49-3.172.734-1.623.504-4.818 1.67-4.722 4.04.332 4.875-15.172 4.536-14.903-.49.702-1.846-4.555-2.343-6.299-.212-.744-3.045-4.298-5.363-4.17-2.318.129-18.227 12.013-19.14 16.246-.913 4.234.209 19.316-1.18 22.89-1.388 3.574-1.72 4.935-1.72 4.935"/><ellipse style="fill:#202020;fill-opacity:1;stroke:#000;stroke-width:.264583;stroke-linecap:round;stroke-linejoin:round;stroke-miterlimit:4;stroke-dasharray:none;stroke-opacity:1" cx="104.698" cy="169.941" rx="44.802" ry="11.667"/><path style="display:inline;fill:#000;fill-opacity:1;fill-rule:evenodd;stroke:#000;stroke-width:.264583px;stroke-linecap:butt;stroke-linejoin:miter;stroke-opacity:1" d="M92.312 75.94c-5.322 11.108-1.665 13.315-2.451 16.65-.786 3.335 1.263 11.872 2.226 12.494-.23 3.058-.142 6.25.797 9.802l-.523 2.14-1.367-1.562c-7.48 5.715-5.753 11.316-5.883 16.94l1.696-.274c-.14 4.05-.597 8.135.419 12.063l-2.755 1.497-.563 14.638-1.306-.128c2.305-17.012-4.24-32.996 6.936-48.055 1.862-2.507.59-2.698.389-4.034-1.204-7.996-9.335-22.393-9.335-22.393z"/><path style="fill:#fea91b;fill-opacity:1;fill-rule:evenodd;stroke:#000;stroke-width:1.78858;stroke-linecap:round;stroke-linejoin:round;stroke-miterlimit:4;stroke-dasharray:none;stroke-opacity:1" d="m69.92 118.82 13.828-31.11 2.62-.024 1.331 8.762-14.534 25.656C61.218 113.54 57.74 102.776 59.748 90.04l24-2.33"/><path style="fill:#de2101;fill-opacity:1;fill-rule:evenodd;stroke:#000;stroke-width:1.77271;stroke-linecap:round;stroke-linejoin:round;stroke-miterlimit:4;stroke-dasharray:none;stroke-opacity:1" d="M89.65 70.453C73.46 69.51 61.903 77.32 59.748 90.04l24-2.33 7.618-11.814-2.126-2.026z"/><path style="fill:#000;fill-opacity:1;fill-rule:evenodd;stroke:#000;stroke-width:.264583px;stroke-linecap:butt;stroke-linejoin:miter;stroke-opacity:1" d="M91.163 119.821c-4.262 35.217-1.009 36.127-7.51 44.686l36.812-4.471"/><path style="fill:#fefefe;fill-opacity:1;fill-rule:evenodd;stroke:none;stroke-width:.264583px;stroke-linecap:butt;stroke-linejoin:miter;stroke-opacity:1" d="M90.1 172.684c4.155-14.516 6.06-36.442 8.854-49.512.296-1.388 7.798-1.408 8.374-.201 4.659 9.77 1.3 22.737 6.163 37.066-8.486 2.388-14.75 10.243-23.392 12.647z"/><path style="fill:#197dec;fill-opacity:1;fill-rule:evenodd;stroke:none;stroke-width:.264583px;stroke-linecap:butt;stroke-linejoin:miter;stroke-opacity:1" d="M92.348 152.562c-.72-.07-2.34-5.176-3.678-8.788-.62-1.67-1.138-14.554-.385-15.733.952-1.493 4.083-6.512 5.057-6.624.973-.112 2.885 2.05 3.143 2.867.259.816-3.268 28.363-4.137 28.278zM86.068 152.651s2.134-4.705 2.767-4.673c.902.045 2.45 4.598 3.203 5.433.603.667-.151 4.14.081 6.005.486 3.899-1.33 8.91-1.806 10.681-.31 1.152.377 3.558.377 3.558s-3.91 4.156-4.762 3.78c-1.54-.676-2.976-11.983-2.696-12.913.28-.93 1.846-3.803 1.846-3.803z"/><ellipse style="fill:#fff;fill-opacity:1;stroke:none;stroke-width:.264583;stroke-linecap:round;stroke-linejoin:round;stroke-miterlimit:4;stroke-dasharray:none;stroke-opacity:1" cx="124.984" cy="132.365" rx="1.896" ry="4.319" transform="rotate(14.5)"/><path style="fill:#197dec;fill-opacity:1;fill-rule:evenodd;stroke:none;stroke-width:.264583px;stroke-linecap:butt;stroke-linejoin:miter;stroke-opacity:1" d="M112.874 125.48c.334-1.112 4.039-7.64 4.924-7.283.885.358 2.57 4.933 3.071 7.792.501 2.858-1.74 17.116-1.47 18.625.583 3.266 4.642 6.041-.398 9.92-1.751 1.347-3.453-.035-3.543-.636-1.113-7.484-2.584-28.417-2.584-28.417z"/><ellipse style="fill:#fff;fill-opacity:1;stroke:none;stroke-width:.264583;stroke-linecap:round;stroke-linejoin:round;stroke-miterlimit:4;stroke-dasharray:none;stroke-opacity:1" cx="149.988" cy="116.8" rx="1.04" ry="2.537" transform="rotate(12.387)"/><path style="fill:#197dec;fill-opacity:1;fill-rule:evenodd;stroke:none;stroke-width:.264583px;stroke-linecap:butt;stroke-linejoin:miter;stroke-opacity:1" d="M118.14 157.314c3.666.531 3.191 4.436 1.918 12.506-1.272 8.071-3.042 9.964-4.353 10.078-1.312.114-1.148-.483-2.87-2.401-.626-.696-.06-5.69.674-10.67.734-4.981 1.635-9.947 4.63-9.513z"/><path style="fill:#000;fill-opacity:1;fill-rule:evenodd;stroke:none;stroke-width:.264583;stroke-linecap:butt;stroke-linejoin:miter;stroke-miterlimit:4;stroke-dasharray:none;stroke-opacity:1" d="m113.11 114.7 12.353-43.842 12.498-.067-11.401 44.421zM136.216 114.063l12.352-43.843 12.498-.067-11.402 44.422z"/><path style="fill:#616161;fill-opacity:1;fill-rule:evenodd;stroke:none;stroke-width:.264583;stroke-linecap:butt;stroke-linejoin:miter;stroke-miterlimit:4;stroke-dasharray:none;stroke-opacity:1" d="M150.314 114.633 137.96 70.791l-12.498-.067 11.402 44.421z"/><path style="fill:#197dec;fill-opacity:1;fill-rule:evenodd;stroke:none;stroke-width:.264583px;stroke-linecap:butt;stroke-linejoin:miter;stroke-opacity:1" d="M94.802 106.496c-.612 2.064 5.305 5.36 12.894 3.655 7.59-1.704 6.182-8.019 7.628-11.71 1.447-3.69 2.795-2.82 3.028-5.722.234-2.902-.858-10.585-4.076-11.4-4.456-1.13-12.057-7.075-19.351 3.507-2.413 3.5-3.627.659-4.944 1.218-1.318.56.034 13.44.544 15.392 1.332 5.09 3.298 4.22 3.455 4.113.157-.107-.832-13.664.496-13.691 1.328-.027-.151 3.56 1.24 5.75s3.735 2.289 3.801 2.959c.066.67-.892.475-.912 1.23-.02.756 1.054 1.082 1.013 1.714-.048.714-3.28-.503-3.307.13-.027.632 3.942 1.113 3.947 1.856.005.744-5.358-1.373-5.456.999z"/><path style="fill:#202020;fill-opacity:1;fill-rule:evenodd;stroke:none;stroke-width:.264583px;stroke-linecap:butt;stroke-linejoin:miter;stroke-opacity:1" d="M109.713 105.503c.672.18 2.618-4.636 3.81-7.89 1.192-3.254 1.63-4.947.726-5.11-.904-.164-1.772 3.185-2.892 6.416-1.12 3.23-2.493 6.341-1.644 6.584z"/><path style="fill:#fff;fill-opacity:1;fill-rule:evenodd;stroke:none;stroke-width:.264583px;stroke-linecap:butt;stroke-linejoin:miter;stroke-opacity:1" d="M109.266 78.2c4.574-1.543 5.929-1.044 8.396 1.799 1.233 1.421.364 3.023 1.42 4.505 1.283 1.804 1.04 2.399.563 3.174-.952 1.55-1.713-3.867-2.718-5.126-1.005-1.258-8.02-2.785-8.02-2.785z"/><path style="fill:#000;fill-rule:evenodd;stroke:#000;stroke-width:.264583px;stroke-linecap:butt;stroke-linejoin:miter;stroke-opacity:1" d="M113.203 72.18c-.255 8.458-18.858 4.85-18.13.155l-.955-.125c.836 1.634.288 3.346-.156 5.052l2.724.516.268 4.747c1.437-.582 6.153 2.221 7.565 2.13 1.413-.09 6.854-2.205 6.854-2.205l-.076-4.8 1.906-1.9c1.106-.853 1.05-2.226 1.186-3.515z"/><path style="fill:#197dec;fill-opacity:1;fill-rule:evenodd;stroke:#197dec;stroke-width:.264583px;stroke-linecap:butt;stroke-linejoin:miter;stroke-opacity:1" d="M112.985 74.036c.914-1.46 3.102-18.73-.55-20.006-3.68-1.286-14.993-1.164-15.824-.203-1.176 1.36-3.426 18.064-.64 20.621 3.429 3.11 13.816 4.246 17.014-.412z"/><path style="fill:#000;fill-rule:evenodd;stroke:#000;stroke-width:.264583px;stroke-linecap:butt;stroke-linejoin:miter;stroke-opacity:1" d="m118.983 39.92-1.997-.385-4.174 14.233c.065 4.474-2.223 7.169-2.872 8.343-.65 1.173-1.09 10.768-1.09 10.768l1.313-.178c-1.204-8.955 4.045-18.186 3.04-.52l1.186.054c-.34-5.513 1.618-11.091-.254-16.658 2.175-4.25-1.85 3.88 4.848-15.657zM90.548 40.005l1.997-.385 4.175 14.233c-.066 4.474 1.854 8.04 2.504 9.214.65 1.174-.099 9.995-.099 9.995l-1.324-.129c2.115-7.371-3.733-18.264-2.728-.598l-.955-.125c.34-5.513-.593-10.98 1.278-16.548-3.186-3.208 1.85 3.88-4.848-15.657z"/><path style="fill:#000;fill-opacity:1;fill-rule:evenodd;stroke:#000;stroke-width:.264583px;stroke-linecap:butt;stroke-linejoin:miter;stroke-opacity:1" d="M112.242 72.019c-.27-11.545-.71-6-.967.687.359.05.995-.946.967-.687z"/><ellipse style="fill:#fff;fill-opacity:1;stroke:#fff;stroke-width:1.565;stroke-linecap:round;stroke-opacity:1" ry="2.229" rx="1.518" cy="56.659" cx="100.027"/><path style="fill:#e6e6e6;fill-rule:evenodd;stroke:#e6e6e6;stroke-width:.264583px;stroke-linecap:butt;stroke-linejoin:miter;stroke-opacity:1" d="M102.879 80.562c2.944.62 2.223 1.054 2.06 1.515zM104.608 80.678c2.988.348 2.31.846 2.19 1.32zM106.143 80.576c3.005.136 2.364.68 2.278 1.161zM101.48 80.443c2.82 1.046 2.044 1.368 1.816 1.801zM100.44 80.375c2.578 1.55 1.755 1.723 1.45 2.106z"/><path style="fill:#000;fill-opacity:1;fill-rule:evenodd;stroke:#000;stroke-width:.264583px;stroke-linecap:butt;stroke-linejoin:miter;stroke-opacity:1" d="M96.017 72.16c.27-11.544.71-6 .967.687-.359.051-.996-.946-.967-.687z"/><path style="fill:#197dec;fill-opacity:1;fill-rule:evenodd;stroke:#000;stroke-width:.264583;stroke-linecap:butt;stroke-linejoin:round;stroke-miterlimit:4;stroke-dasharray:none;stroke-opacity:1" d="M104.314 112.018c-4.015.033-7.625-.599-7.248-.184a8.241 8.241 0 0 0 1.552 1.312s-4.158-.4-4.276-.08c-.118.32 2.884 3.196 8.779 3.145 3.606-.017 9.48-1.435 9.202-3.873-.13-1.136-3.994-.352-8.009-.32z"/></g></svg>